<svg viewBox="0 0 185 49" fill="none" xmlns="http://www.w3.org/2000/svg"><g clip-path="url(#a)"><path d="M18.373 5.533c-.6 1.575-1.201 3.097-1.802 4.565a235.472 235.472 0 0 1-1.761 4.284 197.787 197.787 0 0 1-1.742 4.084 218.056 218.056 0 0 1-1.782 3.944c1.001-.147 2.015-.3 3.043-.46 1.041-.16 2.002-.308 2.883-.441.894-.134 1.662-.247 2.302-.34.64-.094 1.061-.16 1.261-.2A236.51 236.51 0 0 0 24.04 12.7a563.708 563.708 0 0 0 3.143-8.568l1.26 1.261 1.302 1.301c.414.414.774.781 1.081 1.101.307.307.514.52.62.641-.933 1.989-1.848 3.93-2.742 5.826a562.07 562.07 0 0 1-2.662 5.565c1.187-.294 2.135-.56 2.842-.8.708-.254 1.242-.448 1.602-.581.374-.147.607-.234.7-.26.094-.027.127.02.1.14-.04.107-.126.3-.26.58-.133.267-.3.574-.5.921-.187.347-.4.714-.64 1.101-.241.374-.481.72-.721 1.041-.227.32-.448.587-.661.801-.214.214-.394.327-.54.34-.28.054-.608.107-.982.16l-1.2.2c-.468.067-1.008.148-1.622.24a266.478 266.478 0 0 1-3.924 7.709c-1.215 2.295-2.316 4.23-3.303 5.805-.494-.4-.961-.8-1.402-1.201-.44-.387-.874-.654-1.301-.8-.254-1.576-.727-3.284-1.421-5.126a42.556 42.556 0 0 0-2.543-5.525 307.744 307.744 0 0 1-2.903 5.966 302.6 302.6 0 0 1-3.143 6.065 26.652 26.652 0 0 0-1.641-1.24 27.225 27.225 0 0 1-1.342-.922 147.527 147.527 0 0 0 1.922-3.964c.694-1.494 1.408-3.11 2.142-4.844.748-1.749 1.502-3.59 2.263-5.526a252.272 252.272 0 0 0 4.444-12.332c.707-2.148 1.368-4.29 1.982-6.426.387.374.78.748 1.18 1.121.415.36.815.72 1.202 1.081.4.347.768.694 1.101 1.041.347.334.647.648.901.941ZM15.891 31.96a232.933 232.933 0 0 0 3.463-7.587c-1.962.253-4.237.513-6.827.78.36.56.701 1.148 1.021 1.762.334.614.641 1.221.921 1.822.294.6.554 1.181.781 1.741.24.548.454 1.042.64 1.482Zm32.05-3.924a57.032 57.032 0 0 1-3.703 3.063 137.34 137.34 0 0 1-3.803 2.783c-.187.56-.4 1.154-.641 1.782a54.3 54.3 0 0 1-.88 2.142c-.388.88-.828 1.741-1.322 2.582a23.475 23.475 0 0 1-1.582 2.362 20.282 20.282 0 0 1-1.701 2.042 15.435 15.435 0 0 1-1.742 1.582c-.56.454-1.101.8-1.622 1.041-.534.254-1.02.38-1.461.38-.214 0-.474-.08-.78-.24-.308-.16-.602-.367-.882-.62-.28-.24-.514-.5-.7-.781-.2-.28-.3-.54-.3-.78 0-.842.226-1.67.68-2.483.454-.801 1.081-1.609 1.882-2.423a27.784 27.784 0 0 1 2.782-2.482 119.94 119.94 0 0 1 3.484-2.563c.387-1.027.76-2.095 1.121-3.203.374-1.12.734-2.229 1.081-3.323a23.369 23.369 0 0 1-1.662 1.922 22.497 22.497 0 0 1-1.481 1.401c-.454.374-.848.674-1.181.901-.334.24-.587.42-.76.54a1.072 1.072 0 0 1-.381.14c-.147.04-.28.06-.4.06-.254 0-.534-.08-.841-.24a3.264 3.264 0 0 1-.841-.58 3.224 3.224 0 0 1-.661-.76c-.187-.281-.28-.548-.28-.802 0-.293.1-.76.3-1.4.187-.655.447-1.442.78-2.363.321-.921.701-1.955 1.142-3.103.44-1.148.914-2.37 1.421-3.664.027-.067.047-.093.06-.08h.12c.254.04.601.147 1.041.32.44.16.868.34 1.282.541.427.2.794.394 1.1.58.308.174.461.294.461.36-.04.094-.146.315-.32.662l-.58 1.26c-.214.481-.448 1.008-.701 1.582-.24.56-.467 1.101-.68 1.622-.201.52-.368.994-.501 1.421-.134.414-.2.721-.2.921 0 .054.026.08.08.08.093 0 .293-.12.6-.36.32-.24.714-.62 1.181-1.141.467-.52.994-1.181 1.582-1.982a34.417 34.417 0 0 0 1.862-2.923c.267-.88.487-1.581.66-2.102.174-.534.287-.8.34-.8.08 0 .288.1.621.3.334.2.688.44 1.061.72.374.267.707.54 1.001.821.294.267.44.474.44.62a.747.747 0 0 1-.02.18 1.431 1.431 0 0 1-.06.181 97.288 97.288 0 0 0-.8 2.542c-.227.748-.434 1.435-.62 2.062-.174.628-.335 1.208-.481 1.742-.134.52-.267 1.028-.4 1.522 1-.721 1.994-1.455 2.982-2.203a69.207 69.207 0 0 0 2.923-2.382l.9 1.021ZM29.365 45.592c.24 0 .574-.233 1-.7.428-.454.888-1.041 1.382-1.762.494-.72.988-1.528 1.482-2.422.507-.881.954-1.749 1.34-2.603-.506.427-1.073.894-1.7 1.401a15.93 15.93 0 0 0-1.763 1.662 9.988 9.988 0 0 0-1.38 1.922 4.579 4.579 0 0 0-.561 2.202c0 .2.066.3.2.3ZM46.52 27.475c.307-.294.661-.628 1.061-1.001.388-.374.775-.781 1.162-1.222.4-.44.767-.914 1.1-1.42.348-.508.621-1.055.822-1.643.053-.306.133-.627.24-.96.12-.348.247-.661.38-.941.147-.28.287-.514.42-.701.134-.187.254-.28.36-.28.161.093.401.273.722.54.32.254.64.527.96.821.32.294.601.567.841.82.254.241.38.388.38.441-.16.614-.24 1.168-.24 1.662.014.494.054.98.12 1.461.08.48.16.995.24 1.542.094.534.141 1.154.141 1.862 0 .427-.073.92-.22 1.481a3.836 3.836 0 0 1-.72 1.482c.68-.4 1.354-.848 2.021-1.342a43.834 43.834 0 0 0 3.543-2.983l.901.981c-.44.414-.92.854-1.441 1.322-.507.467-1.041.927-1.602 1.38a31.37 31.37 0 0 1-1.681 1.302c-.574.414-1.141.78-1.702 1.101-.56.32-1.1.574-1.622.76-.52.188-1.007.281-1.46.281-.388 0-.815-.093-1.282-.28a7.712 7.712 0 0 1-2.402-1.522c-.307-.293-.488-.54-.541-.74 0-.027.027-.08.08-.16.053-.094.12-.187.2-.28.067-.094.14-.174.22-.241.067-.08.12-.12.16-.12.08 0 .24.06.481.18.24.12.64.18 1.201.18.307 0 .568-.08.781-.24.227-.16.414-.374.56-.64.147-.268.254-.575.32-.922.068-.346.101-.713.101-1.1 0-.561-.027-1.102-.08-1.622a44.68 44.68 0 0 0-.18-1.542c-.227.267-.487.548-.781.841a56.486 56.486 0 0 1-2.603 2.443l-.96-.981ZM61.795 34.1c-.227 0-.527-.107-.9-.32-.36-.2-.715-.454-1.062-.761a6.487 6.487 0 0 1-.9-.92c-.254-.321-.38-.595-.38-.822 0-.4.113-1.034.34-1.901.213-.868.5-1.856.86-2.963.36-1.122.768-2.316 1.222-3.584.467-1.268.934-2.509 1.401-3.724h-2.843c-.013 0-.02-.013-.02-.04 0-.08.034-.193.1-.34.054-.16.127-.32.22-.48.08-.174.18-.327.3-.46.108-.148.214-.241.321-.281l2.603-.12c.373-.908.727-1.742 1.06-2.503.348-.774.655-1.434.922-1.982.066-.146.133-.3.2-.46.08-.174.187-.34.32-.5.147-.174.334-.348.56-.521.24-.187.561-.374.962-.56.293-.147.647-.308 1.06-.481.428-.174.841-.334 1.242-.48.413-.147.787-.267 1.12-.36.335-.108.575-.161.722-.161.133 0 .2.027.2.08v.04a.35.35 0 0 1-.04.1c-.08.134-.227.427-.44.881-.214.44-.481 1.001-.801 1.682-.307.667-.654 1.434-1.041 2.302-.374.854-.761 1.762-1.162 2.723l4.805-.18c.134 0 .174.08.12.24-.053.16-.153.347-.3.56-.147.214-.32.434-.52.66-.187.228-.348.401-.481.521a.434.434 0 0 1-.16.08.962.962 0 0 1-.3.04H67.14a101.7 101.7 0 0 0-1.382 3.524 87.85 87.85 0 0 0-1.18 3.383 38.599 38.599 0 0 0-.842 2.943c-.2.894-.3 1.628-.3 2.202 0 .08.04.12.12.12.147 0 .367-.08.66-.24.294-.173.621-.394.982-.66.373-.268.767-.561 1.18-.881.415-.32.808-.634 1.182-.941.374-.32.707-.608 1.001-.861.307-.267.54-.467.7-.6.12.12.26.273.421.46a106 106 0 0 1 .48.52c-.293.294-.66.654-1.1 1.081-.44.414-.921.841-1.442 1.282-.507.44-1.04.88-1.602 1.32-.547.441-1.087.835-1.621 1.182-.52.347-1.008.627-1.461.84-.454.214-.835.321-1.142.321Zm9.87-3.143c0 .4.147.6.44.6.307 0 .715-.24 1.222-.72.507-.494 1.034-1.114 1.581-1.862a7.125 7.125 0 0 1-.06-.38v-.32c0-.267.027-.581.08-.942.067-.373.22-.794.46-1.26.16-.361.354-.715.581-1.062.187-.307.414-.634.68-.98.268-.361.561-.695.882-1.002l.12-.12c.133.16.307.38.52.66.227.268.447.548.661.842.227.28.42.54.58.78.174.24.28.407.32.5 0 .575-.106 1.149-.32 1.723a8.643 8.643 0 0 1-.82 1.701 5.67 5.67 0 0 0 2.222-.6c.694-.36 1.415-.941 2.162-1.742.12.12.274.287.46.5.2.2.36.374.481.52a11.53 11.53 0 0 1-1.662 1.462 7.964 7.964 0 0 1-1.621.921 8.022 8.022 0 0 1-1.642.5c-.56.094-1.134.14-1.722.14-.453.481-.94.922-1.46 1.322-.521.4-1.055.748-1.603 1.041a8.234 8.234 0 0 1-1.601.68c-.534.161-1.041.241-1.521.241-.4 0-.815-.12-1.242-.36a5.329 5.329 0 0 1-1.16-.881 5.7 5.7 0 0 1-.862-1.141c-.227-.4-.34-.754-.34-1.061 0-1.015.14-2.022.42-3.023a9.193 9.193 0 0 1 1.282-2.803 9.07 9.07 0 0 1 2.202-2.322c.907-.668 1.982-1.175 3.223-1.522a.51.51 0 0 1 .2-.06 2.2 2.2 0 0 1 .26-.02c.187 0 .38.074.58.22.215.134.408.287.582.46.186.174.34.348.46.521.12.16.18.267.18.32-.027.067-.127.154-.3.26-.174.094-.407.261-.7.501-.294.24-.642.588-1.042 1.041-.4.44-.84 1.028-1.321 1.762-.72 1.081-1.208 2.062-1.462 2.943-.253.867-.38 1.541-.38 2.022Zm20.1-6.246a32.83 32.83 0 0 1-.661 1.782c-.254.667-.5 1.32-.74 1.962-.241.64-.448 1.22-.621 1.741-.16.52-.24.895-.24 1.121 0 .08.04.12.12.12.146 0 .367-.086.66-.26.294-.173.627-.4 1.001-.68.387-.28.788-.588 1.201-.921.414-.334.808-.661 1.181-.981.388-.334.735-.634 1.041-.901.308-.267.541-.467.701-.6.12.12.26.273.42.46a106 106 0 0 1 .481.52c-.293.294-.66.654-1.101 1.081-.44.414-.92.841-1.441 1.282-.508.44-1.041.88-1.602 1.32-.547.441-1.088.835-1.622 1.182-.52.347-1.007.627-1.461.84-.454.214-.834.321-1.141.321-.2 0-.454-.073-.76-.22a4.247 4.247 0 0 1-.882-.52c-.28-.2-.52-.428-.72-.681-.2-.254-.3-.5-.3-.741.2-.894.4-1.675.6-2.342.2-.668.387-1.235.56-1.702.174-.48.327-.867.46-1.161l.301-.66a4.875 4.875 0 0 1-.46-.221l-.44-.24c-.214.227-.454.467-.721.72a42.343 42.343 0 0 1-1.582 1.502c-.267.24-.507.46-.72.66l-.962-.98c.347-.334.768-.734 1.262-1.201.48-.481.954-.962 1.421-1.442a29.77 29.77 0 0 1-.9-.56 15.538 15.538 0 0 1-.681-.501c-.227-.16-.428-.307-.601-.44-.08-.04-.12-.127-.12-.26 0-.148.06-.354.18-.621.107-.28.247-.574.42-.881.174-.32.36-.64.56-.961.201-.334.395-.634.582-.9.186-.268.346-.481.48-.642.147-.173.24-.26.28-.26.027 0 .114.034.26.1.16.067.328.147.501.24.173.08.334.174.48.28.147.108.24.201.28.281.014.067.027.207.04.42.014.214.028.474.04.781.521.267 1.055.574 1.602.921.548.334 1.048.654 1.502.961.534.347 1.04.7 1.521 1.061.174.107.28.24.32.4.054.16.06.3.02.42Zm20.68 3.323a56.958 56.958 0 0 1-3.704 3.063 138.836 138.836 0 0 1-3.803 2.783c-.187.56-.401 1.154-.641 1.782-.24.627-.534 1.34-.881 2.142-.387.88-.827 1.741-1.321 2.582a23.427 23.427 0 0 1-1.582 2.362 20.24 20.24 0 0 1-1.702 2.042 15.435 15.435 0 0 1-1.741 1.582c-.56.454-1.101.8-1.622 1.041-.534.254-1.02.38-1.461.38-.214 0-.474-.08-.78-.24-.308-.16-.601-.367-.882-.62-.28-.24-.514-.5-.7-.781-.2-.28-.3-.54-.3-.78 0-.842.226-1.67.68-2.483.454-.801 1.08-1.609 1.882-2.423a27.795 27.795 0 0 1 2.782-2.482 119.686 119.686 0 0 1 3.484-2.563 73.902 73.902 0 0 0 1.121-3.203 233.72 233.72 0 0 0 1.081-3.323 23.369 23.369 0 0 1-1.662 1.922 22.3 22.3 0 0 1-1.481 1.401c-.454.374-.848.674-1.181.901-.334.24-.588.42-.761.54a1.072 1.072 0 0 1-.38.14c-.147.04-.28.06-.4.06-.254 0-.535-.08-.842-.24a3.266 3.266 0 0 1-.84-.58 3.223 3.223 0 0 1-.661-.76c-.187-.281-.28-.548-.28-.802 0-.293.1-.76.3-1.4.187-.655.447-1.442.78-2.363.321-.921.701-1.955 1.142-3.103.44-1.148.914-2.37 1.421-3.664.027-.067.047-.093.06-.08h.12c.254.04.601.147 1.041.32.44.16.868.34 1.282.541.427.2.794.394 1.101.58.307.174.46.294.46.36-.04.094-.147.315-.32.662l-.581 1.26-.7 1.582c-.24.56-.468 1.101-.681 1.622-.2.52-.367.994-.5 1.421-.134.414-.2.721-.2.921 0 .054.026.08.08.08.093 0 .293-.12.6-.36.32-.24.714-.62 1.181-1.141.467-.52.994-1.181 1.582-1.982a34.253 34.253 0 0 0 1.861-2.923c.267-.88.488-1.581.661-2.102.174-.534.287-.8.34-.8.081 0 .287.1.621.3.334.2.687.44 1.061.72.374.267.707.54 1.001.821.294.267.441.474.441.62a.712.712 0 0 1-.021.18 1.324 1.324 0 0 1-.06.181 97.436 97.436 0 0 0-.8 2.542c-.227.748-.434 1.435-.621 2.062-.173.628-.334 1.208-.48 1.742-.134.52-.267 1.028-.401 1.522 1.001-.721 1.995-1.455 2.983-2.203a69.02 69.02 0 0 0 2.923-2.382l.901 1.021ZM93.867 45.592c.24 0 .574-.233 1-.7.428-.454.888-1.041 1.382-1.762.494-.72.988-1.528 1.482-2.422.507-.881.954-1.749 1.34-2.603-.506.427-1.074.894-1.7 1.401a15.93 15.93 0 0 0-1.763 1.662 9.983 9.983 0 0 0-1.38 1.922 4.579 4.579 0 0 0-.561 2.202c0 .2.066.3.2.3Zm48.407-38.377c0 .64-.254 1.354-.761 2.142-.507.774-1.161 1.562-1.962 2.362a28.731 28.731 0 0 1-2.642 2.322 39.701 39.701 0 0 1-2.883 2.023c-.788.493-1.548.947-2.282 1.36-.721.401-1.402.782-2.042 1.142-.628.36-1.202.707-1.722 1.04-.521.321-.974.648-1.361.982.961.173 1.815.347 2.562.52.748.16 1.341.354 1.782.581.32.227.647.567.981 1.021.334.44.634.894.901 1.361.267.467.48.894.64 1.281.174.374.261.601.261.681 0 .587-.154 1.208-.461 1.862a8.84 8.84 0 0 1-1.241 1.962 13.12 13.12 0 0 1-1.882 1.862c-.721.6-1.515 1.14-2.382 1.621-.854.494-1.762.908-2.723 1.241-.961.347-1.935.574-2.923.681-.44-.36-.867-.747-1.281-1.16a44.45 44.45 0 0 1-1.121-1.122c-.334-.36-.614-.667-.841-.92a28.093 28.093 0 0 1-.42-.501 23.808 23.808 0 0 1-1.462 2.042 10.98 10.98 0 0 1-1.481 1.541c-.481.427-.968.747-1.462.961-.48.227-.961.327-1.441.3a1.254 1.254 0 0 1-.621-.24 3.146 3.146 0 0 1-.62-.52 5.937 5.937 0 0 1-.561-.701 6.827 6.827 0 0 1-.48-.74 3.837 3.837 0 0 1-.341-.642c-.08-.186-.12-.32-.12-.4 0-1.401.301-2.963.901-4.684.587-1.722 1.395-3.504 2.423-5.346a46.793 46.793 0 0 1 3.643-5.525 54.928 54.928 0 0 1 4.525-5.265c.533-1.922.967-3.79 1.301-5.606.333-1.815.514-3.476.54-4.984.881.467 1.589.927 2.122 1.38.534.441.955.835 1.262 1.182.347.414.6.807.76 1.181.08.24.12.58.12 1.021 0 .08-.006.167-.02.26 0 .08-.006.167-.02.26 1.869-1.334 3.724-2.395 5.566-3.182 1.855-.801 3.63-1.202 5.325-1.202.214 0 .461.08.741.24.28.16.56.374.841.641.293.267.58.567.86.901.294.32.548.654.761 1.001.227.334.407.66.541.981.133.307.2.574.2.8Zm-18.959 14.414a78.631 78.631 0 0 1-2.282 5.285 41.01 41.01 0 0 1-2.522 4.605 30.122 30.122 0 0 0 4.244-.661c1.308-.32 2.489-.74 3.543-1.261a10.844 10.844 0 0 0 2.763-1.922 9.396 9.396 0 0 0 1.962-2.683 6.754 6.754 0 0 0-.881-.4 9.395 9.395 0 0 0-.981-.32 13.696 13.696 0 0 0-1.061-.24 35.78 35.78 0 0 0-1.021-.221 32.717 32.717 0 0 0-2.402-.32c-.187-.027-.407-.227-.661-.6-.24-.375-.474-.795-.701-1.262Zm3.123-9.51c-.226.828-.48 1.696-.76 2.603a93.489 93.489 0 0 1-.881 2.783 40.018 40.018 0 0 1 3.864-2.763 219.05 219.05 0 0 0 4.124-2.642 44.663 44.663 0 0 0 3.863-2.883 16.765 16.765 0 0 0 3.123-3.484.3.3 0 0 0 .061-.24.456.456 0 0 0-.081-.26.574.574 0 0 0-.22-.22.452.452 0 0 0-.3-.1c-.747 0-1.608.18-2.583.54-.96.347-1.995.84-3.103 1.482a35.194 35.194 0 0 0-3.483 2.282 56.775 56.775 0 0 0-3.624 2.903ZM112.705 32.6c.12 0 .294-.146.521-.44.24-.307.513-.727.82-1.261a30.2 30.2 0 0 0 1.041-1.962c.387-.774.788-1.622 1.202-2.542.413-.935.834-1.936 1.261-3.003.44-1.068.874-2.176 1.301-3.324a52.103 52.103 0 0 0-2.222 3.043 37.737 37.737 0 0 0-1.882 3.043 29.214 29.214 0 0 0-1.421 3.023 17.127 17.127 0 0 0-.861 2.883c-.04.187-.034.327.02.42.067.08.14.12.22.12Zm26.946-1.641c0 .4.147.6.441.6.307 0 .714-.24 1.221-.72.507-.494 1.034-1.114 1.582-1.862a7.56 7.56 0 0 1-.061-.38v-.32c0-.267.027-.581.081-.942.066-.373.22-.794.46-1.26.16-.361.354-.715.581-1.062.186-.307.413-.634.68-.98a7.91 7.91 0 0 1 .881-1.002l.12-.12c.134.16.307.38.521.66.227.268.447.548.66.842.227.28.421.54.581.78.173.24.28.407.32.5a4.92 4.92 0 0 1-.32 1.723 8.633 8.633 0 0 1-.821 1.701 5.664 5.664 0 0 0 2.222-.6c.694-.36 1.415-.941 2.162-1.742.121.12.274.287.461.5.2.2.36.374.48.52a11.506 11.506 0 0 1-1.661 1.462 7.974 7.974 0 0 1-1.622.921 8.028 8.028 0 0 1-1.641.5c-.561.094-1.135.14-1.722.14-.454.481-.941.922-1.462 1.322-.52.4-1.054.748-1.601 1.041a8.238 8.238 0 0 1-1.602.68c-.534.161-1.041.241-1.521.241-.401 0-.814-.12-1.241-.36a5.336 5.336 0 0 1-1.162-.881 5.699 5.699 0 0 1-.86-1.141c-.227-.4-.341-.754-.341-1.061 0-1.015.14-2.022.421-3.023a9.2 9.2 0 0 1 1.281-2.803 9.074 9.074 0 0 1 2.202-2.322c.908-.668 1.982-1.175 3.223-1.522a.51.51 0 0 1 .2-.06 2.21 2.21 0 0 1 .261-.02c.187 0 .38.074.58.22.214.134.407.287.581.46.187.174.34.348.46.521.12.16.18.267.18.32-.026.067-.126.154-.3.26a4.92 4.92 0 0 0-.701.501c-.293.24-.64.588-1.041 1.041-.4.44-.84 1.028-1.321 1.762-.721 1.081-1.208 2.062-1.461 2.943-.254.867-.381 1.541-.381 2.022Zm13.453 0c0 .4.147.6.441.6.307 0 .714-.24 1.221-.72.507-.494 1.034-1.114 1.582-1.862a6.466 6.466 0 0 1-.06-.38v-.32c0-.267.026-.581.08-.942.066-.373.22-.794.46-1.26.16-.361.354-.715.581-1.062.187-.307.413-.634.68-.98a7.91 7.91 0 0 1 .881-1.002l.12-.12c.134.16.307.38.521.66.227.268.447.548.66.842.227.28.421.54.581.78.174.24.28.407.32.5 0 .575-.106 1.149-.32 1.723a8.633 8.633 0 0 1-.821 1.701 5.664 5.664 0 0 0 2.222-.6c.694-.36 1.415-.941 2.163-1.742.12.12.273.287.46.5.2.2.36.374.48.52a11.506 11.506 0 0 1-1.661 1.462 7.974 7.974 0 0 1-1.622.921 8.028 8.028 0 0 1-1.641.5c-.561.094-1.135.14-1.722.14-.454.481-.941.922-1.461 1.322-.521.4-1.055.748-1.602 1.041a8.238 8.238 0 0 1-1.602.68c-.533.161-1.041.241-1.521.241-.4 0-.814-.12-1.241-.36a5.33 5.33 0 0 1-1.161-.881 5.704 5.704 0 0 1-.861-1.141c-.227-.4-.341-.754-.341-1.061 0-1.015.141-2.022.421-3.023a9.2 9.2 0 0 1 1.281-2.803 9.074 9.074 0 0 1 2.202-2.322c.908-.668 1.982-1.175 3.223-1.522a.51.51 0 0 1 .201-.06 2.18 2.18 0 0 1 .26-.02c.187 0 .38.074.58.22.214.134.407.287.581.46.187.174.34.348.46.521.121.16.181.267.181.32-.027.067-.127.154-.301.26-.173.094-.407.261-.7.501-.294.24-.641.588-1.041 1.041-.401.44-.841 1.028-1.322 1.762-.72 1.081-1.208 2.062-1.461 2.943-.254.867-.381 1.541-.381 2.022Zm22.022.04c.214 0 .48-.08.801-.24.333-.16.694-.36 1.081-.6.387-.254.781-.535 1.181-.842a31.95 31.95 0 0 0 1.161-.9 28.15 28.15 0 0 0 1.001-.821c.294-.254.521-.447.681-.58.12.12.26.273.42.46.174.186.334.36.481.52-.294.294-.661.654-1.101 1.081-.441.414-.921.841-1.442 1.281-.507.44-1.041.881-1.601 1.322-.548.44-1.088.834-1.622 1.18-.521.348-1.008.628-1.461.842-.454.213-.835.32-1.142.32-.52 0-.994-.107-1.421-.32-.414-.2-.794-.46-1.141-.781a8.7 8.7 0 0 1-.941-1.121c-.294-.427-.567-.861-.821-1.301-.227.293-.46.62-.7.98-.227.348-.441.681-.641 1.002-.2.32-.367.6-.501.84-.133.24-.22.387-.26.44-.027.108-.067.18-.12.221-.053.053-.14.08-.26.08-.2 0-.441-.08-.721-.24a4.427 4.427 0 0 1-.821-.6 11.76 11.76 0 0 1-.82-.822 7.154 7.154 0 0 1-.721-.92 1.092 1.092 0 0 1-.2-.501 4.865 4.865 0 0 1-.04-.68c0-.881.106-1.876.32-2.983.213-1.108.514-2.27.901-3.484.387-1.228.847-2.489 1.381-3.784a53.205 53.205 0 0 1 1.802-3.863 49.022 49.022 0 0 1 2.122-3.744 42.436 42.436 0 0 1 2.362-3.403 27.956 27.956 0 0 1 2.503-2.843c.854-.841 1.715-1.528 2.582-2.062a1.37 1.37 0 0 1 .361-.16c.12-.027.22-.04.3-.04.16 0 .387.093.681.28.293.173.6.387.92.64.334.254.641.508.921.761.294.254.507.46.641.62.08.121.12.295.12.521 0 .881-.294 1.982-.881 3.304-.587 1.308-1.415 2.756-2.482 4.344-1.068 1.575-2.363 3.25-3.884 5.025a74.058 74.058 0 0 1-5.045 5.345c-.2.68-.394 1.361-.581 2.042-.186.667-.36 1.341-.52 2.022 1.255-1.802 2.362-3.223 3.323-4.264.975-1.055 1.809-1.849 2.503-2.383.694-.547 1.254-.894 1.681-1.04.441-.16.748-.24.921-.24.16 0 .347.086.561.26.227.16.44.353.64.58.201.214.381.427.541.64.16.2.267.348.32.441.014.134-.127.407-.42.82-.294.401-.701.868-1.221 1.402a24.687 24.687 0 0 1-1.862 1.702 19.068 19.068 0 0 1-2.322 1.641c.427.614.794 1.095 1.101 1.442.307.347.567.607.78.78.241.2.447.328.621.381Zm-2.142-16.156c-.401.801-.814 1.689-1.241 2.663a83.394 83.394 0 0 0-1.242 3.103c1.482-1.682 2.743-3.243 3.784-4.685 1.055-1.441 1.915-2.742 2.583-3.903.68-1.175 1.174-2.21 1.481-3.104.307-.894.461-1.641.461-2.242 0-.04-.007-.08-.02-.12 0-.053-.034-.08-.101-.08-.16 0-.42.187-.78.56-.361.374-.794.922-1.302 1.642a45.156 45.156 0 0 0-1.701 2.643 56.941 56.941 0 0 0-1.922 3.523Z" fill="#fff"></path></g><defs><clipPath id="a"><path fill="#fff" d="M0 0h185v49H0z"></path> </clipPath></defs></svg>