<svg style="shape-rendering:geometricPrecision;text-rendering:geometricPrecision;image-rendering:optimizeQuality;fill-rule:evenodd;clip-rule:evenodd" viewBox="0 0 270.92 270.92" xml:space="preserve" xmlns="http://www.w3.org/2000/svg"><path d="M202.47 214.83c0 8.75-7.1 15.85-15.85 15.85H84.3c-8.74 0-15.85-7.1-15.85-15.85V56.08c0-8.75 7.11-15.86 15.85-15.86h102.32c8.75 0 15.85 7.11 15.85 15.86v158.75zm-67.01-23.22H90.25a3.53 3.53 0 1 0 0 7.06h45.21a3.52 3.52 0 0 0 3.52-3.53c0-1.94-1.57-3.53-3.52-3.53zm45.23-32.01H90.25c-1.95 0-3.53 1.59-3.53 3.54a3.52 3.52 0 0 0 3.53 3.52h90.44c1.95 0 3.52-1.57 3.52-3.52s-1.57-3.54-3.52-3.54zm0-29.46H90.25a3.52 3.52 0 0 0-3.53 3.52 3.53 3.53 0 0 0 3.53 3.53h90.44a3.52 3.52 0 0 0 3.52-3.53c0-1.95-1.57-3.52-3.52-3.52zm0-29.36H90.25a3.53 3.53 0 0 0-3.53 3.53 3.52 3.52 0 0 0 3.53 3.52h90.44c1.95 0 3.52-1.57 3.52-3.52a3.52 3.52 0 0 0-3.52-3.53zm0-28.24H90.25c-1.95 0-3.53 1.59-3.53 3.54a3.52 3.52 0 0 0 3.53 3.52h90.44c1.95 0 3.52-1.57 3.52-3.52s-1.57-3.54-3.52-3.54zm5.93-39.37H84.3c-12.63 0-22.91 10.27-22.91 22.91v158.75c0 12.65 10.28 22.91 22.91 22.91h102.32c12.63 0 22.92-10.26 22.92-22.91V56.08c0-12.64-10.29-22.91-22.92-22.91z" style="fill:#000;fill-rule:nonzero"/></svg>
